<svg width="40" height="40" viewBox="0 0 40 40" fill="none" xmlns="http://www.w3.org/2000/svg">
<rect width="40" height="40" rx="20" fill="#4415C6"/>
<g clip-path="url(#clip0_3_79)">
<path d="M20 19.9999C20.9889 19.9999 21.9556 19.7067 22.7779 19.1573C23.6001 18.6079 24.241 17.827 24.6194 16.9134C24.9978 15.9997 25.0969 14.9944 24.9039 14.0245C24.711 13.0546 24.2348 12.1637 23.5355 11.4644C22.8363 10.7651 21.9454 10.2889 20.9755 10.096C20.0055 9.90309 19.0002 10.0021 18.0866 10.3805C17.173 10.759 16.3921 11.3998 15.8427 12.2221C15.2932 13.0443 15 14.011 15 14.9999C15.0013 16.3256 15.5285 17.5966 16.4659 18.534C17.4033 19.4714 18.6743 19.9986 20 19.9999ZM20 11.6666C20.6593 11.6666 21.3037 11.8621 21.8519 12.2284C22.4001 12.5946 22.8273 13.1152 23.0796 13.7243C23.3319 14.3334 23.3979 15.0036 23.2693 15.6502C23.1407 16.2968 22.8232 16.8908 22.357 17.357C21.8908 17.8231 21.2969 18.1406 20.6503 18.2692C20.0037 18.3978 19.3335 18.3318 18.7244 18.0795C18.1153 17.8272 17.5947 17.4 17.2284 16.8518C16.8622 16.3037 16.6667 15.6592 16.6667 14.9999C16.6667 14.1159 17.0179 13.268 17.643 12.6429C18.2681 12.0178 19.1159 11.6666 20 11.6666Z" fill="white"/>
<path d="M20 21.6672C18.0116 21.6694 16.1052 22.4603 14.6991 23.8663C13.2931 25.2724 12.5022 27.1787 12.5 29.1672C12.5 29.3882 12.5878 29.6002 12.7441 29.7564C12.9004 29.9127 13.1123 30.0005 13.3333 30.0005C13.5543 30.0005 13.7663 29.9127 13.9226 29.7564C14.0789 29.6002 14.1667 29.3882 14.1667 29.1672C14.1667 27.6201 14.7812 26.1363 15.8752 25.0424C16.9692 23.9484 18.4529 23.3338 20 23.3338C21.5471 23.3338 23.0308 23.9484 24.1248 25.0424C25.2188 26.1363 25.8333 27.6201 25.8333 29.1672C25.8333 29.3882 25.9211 29.6002 26.0774 29.7564C26.2337 29.9127 26.4457 30.0005 26.6667 30.0005C26.8877 30.0005 27.0996 29.9127 27.2559 29.7564C27.4122 29.6002 27.5 29.3882 27.5 29.1672C27.4978 27.1787 26.7069 25.2724 25.3009 23.8663C23.8948 22.4603 21.9884 21.6694 20 21.6672Z" fill="white"/>
</g>
<defs>
<clipPath id="clip0_3_79">
<rect width="20" height="20" fill="white" transform="translate(10 10)"/>
</clipPath>
</defs>
</svg>
