<svg width="107" height="39" viewBox="0 0 107 39" fill="none" xmlns="http://www.w3.org/2000/svg">
<rect x="65" width="42" height="39" rx="19.5" fill="#EB0000" fill-opacity="0.37"/>
<path d="M75.3807 27.8068V23.0398H76.1705C76.4394 22.8466 76.6856 22.5739 76.9091 22.2216C77.1326 21.8655 77.3239 21.375 77.483 20.75C77.642 20.1212 77.7557 19.2992 77.8239 18.2841L78.1534 13.3636H85.8523V23.0398H87.125V27.7955H84.7614V25H77.7443V27.8068H75.3807ZM79.0114 23.0398H83.4886V15.392H80.3693L80.1875 18.2841C80.1383 19.053 80.0568 19.7348 79.9432 20.3295C79.8333 20.9242 79.6989 21.4451 79.5398 21.892C79.3845 22.3352 79.2083 22.7178 79.0114 23.0398ZM91.0639 25.1648C90.5071 25.1648 90.0109 25.0682 89.5753 24.875C89.1397 24.678 88.795 24.3883 88.5412 24.0057C88.2912 23.6193 88.1662 23.1383 88.1662 22.5625C88.1662 22.0777 88.2552 21.6705 88.4332 21.3409C88.6113 21.0114 88.8537 20.7462 89.1605 20.5455C89.4673 20.3447 89.8158 20.1932 90.206 20.0909C90.5999 19.9886 91.0128 19.9167 91.4446 19.875C91.9522 19.822 92.3613 19.7727 92.6719 19.7273C92.9825 19.678 93.2079 19.6061 93.348 19.5114C93.4882 19.4167 93.5582 19.2765 93.5582 19.0909V19.0568C93.5582 18.697 93.4446 18.4186 93.2173 18.2216C92.9938 18.0246 92.6757 17.9261 92.2628 17.9261C91.8272 17.9261 91.4806 18.0227 91.223 18.2159C90.9654 18.4053 90.795 18.6439 90.7116 18.9318L88.473 18.75C88.5866 18.2197 88.8101 17.7614 89.1435 17.375C89.4768 16.9848 89.9067 16.6856 90.4332 16.4773C90.9635 16.2652 91.5772 16.1591 92.2741 16.1591C92.759 16.1591 93.223 16.2159 93.6662 16.3295C94.1132 16.4432 94.509 16.6193 94.8537 16.858C95.2022 17.0966 95.4768 17.4034 95.6776 17.7784C95.8783 18.1496 95.9787 18.5947 95.9787 19.1136V25H93.6832V23.7898H93.6151C93.4749 24.0625 93.2874 24.303 93.0526 24.5114C92.8177 24.7159 92.5355 24.8769 92.206 24.9943C91.8764 25.108 91.4957 25.1648 91.0639 25.1648ZM91.7571 23.4943C92.1132 23.4943 92.4276 23.4242 92.7003 23.2841C92.973 23.1402 93.187 22.947 93.3423 22.7045C93.4976 22.4621 93.5753 22.1875 93.5753 21.8807V20.9545C93.4995 21.0038 93.3954 21.0492 93.2628 21.0909C93.134 21.1288 92.9882 21.1648 92.8253 21.1989C92.6624 21.2292 92.4995 21.2576 92.3366 21.2841C92.1738 21.3068 92.026 21.3277 91.8935 21.3466C91.6094 21.3883 91.3613 21.4545 91.1491 21.5455C90.937 21.6364 90.7723 21.7595 90.6548 21.9148C90.5374 22.0663 90.4787 22.2557 90.4787 22.483C90.4787 22.8125 90.598 23.0644 90.8366 23.2386C91.0791 23.4091 91.3859 23.4943 91.7571 23.4943Z" fill="#110057"/>
<path d="M1.40909 13.3636H2.81818V23.7045H6.90909V13.3636H8.31818V23.7045H12.4091V13.3636H13.8182V25H1.40909V13.3636ZM15.9616 17.5227V16.2727H23.0526V17.5227H20.1889V25H18.848V17.5227H15.9616ZM25.0085 28.2727V16.2727H26.304V17.6591H26.4631C26.5616 17.5076 26.6979 17.3144 26.8722 17.0795C27.0502 16.8409 27.304 16.6288 27.6335 16.4432C27.9669 16.2538 28.4176 16.1591 28.9858 16.1591C29.7206 16.1591 30.3684 16.3428 30.929 16.7102C31.4896 17.0777 31.9271 17.5985 32.2415 18.2727C32.5559 18.947 32.7131 19.7424 32.7131 20.6591C32.7131 21.5833 32.5559 22.3845 32.2415 23.0625C31.9271 23.7367 31.4915 24.2595 30.9347 24.6307C30.3778 24.9981 29.7358 25.1818 29.0085 25.1818C28.4479 25.1818 27.9991 25.089 27.6619 24.9034C27.3248 24.714 27.0653 24.5 26.8835 24.2614C26.7017 24.0189 26.5616 23.8182 26.4631 23.6591H26.3494V28.2727H25.0085ZM26.3267 20.6364C26.3267 21.2955 26.4233 21.8769 26.6165 22.3807C26.8097 22.8807 27.0919 23.2727 27.4631 23.5568C27.8343 23.8371 28.2888 23.9773 28.8267 23.9773C29.3873 23.9773 29.8551 23.8295 30.2301 23.5341C30.6089 23.2348 30.893 22.8333 31.0824 22.3295C31.2756 21.822 31.3722 21.2576 31.3722 20.6364C31.3722 20.0227 31.2775 19.4697 31.0881 18.9773C30.9025 18.4811 30.6203 18.089 30.2415 17.8011C29.8665 17.5095 29.3949 17.3636 28.8267 17.3636C28.2813 17.3636 27.8229 17.5019 27.4517 17.7784C27.0805 18.0511 26.8002 18.4337 26.6108 18.9261C26.4214 19.4148 26.3267 19.9848 26.3267 20.6364ZM37.3267 25.2045C36.7737 25.2045 36.2718 25.1004 35.821 24.892C35.3703 24.6799 35.0123 24.375 34.7472 23.9773C34.482 23.5758 34.3494 23.0909 34.3494 22.5227C34.3494 22.0227 34.4479 21.6174 34.6449 21.3068C34.8419 20.9924 35.1051 20.7462 35.4347 20.5682C35.7642 20.3902 36.1278 20.2576 36.5256 20.1705C36.9271 20.0795 37.3305 20.0076 37.7358 19.9545C38.2661 19.8864 38.696 19.8352 39.0256 19.8011C39.3589 19.7633 39.6013 19.7008 39.7528 19.6136C39.9081 19.5265 39.9858 19.375 39.9858 19.1591V19.1136C39.9858 18.553 39.8324 18.1174 39.5256 17.8068C39.2225 17.4962 38.7623 17.3409 38.1449 17.3409C37.5047 17.3409 37.0028 17.4811 36.6392 17.7614C36.2756 18.0417 36.0199 18.3409 35.8722 18.6591L34.5994 18.2045C34.8267 17.6742 35.1297 17.2614 35.5085 16.9659C35.8911 16.6667 36.3078 16.4583 36.7585 16.3409C37.2131 16.2197 37.66 16.1591 38.0994 16.1591C38.3797 16.1591 38.7017 16.1932 39.0653 16.2614C39.4328 16.3258 39.7869 16.4602 40.1278 16.6648C40.4725 16.8693 40.7585 17.178 40.9858 17.5909C41.2131 18.0038 41.3267 18.5568 41.3267 19.25V25H39.9858V23.8182H39.9176C39.8267 24.0076 39.6752 24.2102 39.4631 24.4261C39.2509 24.642 38.9688 24.8258 38.6165 24.9773C38.2642 25.1288 37.8343 25.2045 37.3267 25.2045ZM37.5312 24C38.0616 24 38.5085 23.8958 38.8722 23.6875C39.2396 23.4792 39.5161 23.2102 39.7017 22.8807C39.8911 22.5511 39.9858 22.2045 39.9858 21.8409V20.6136C39.929 20.6818 39.804 20.7443 39.6108 20.8011C39.4214 20.8542 39.2017 20.9015 38.9517 20.9432C38.7055 20.9811 38.465 21.0152 38.2301 21.0455C37.9991 21.072 37.8116 21.0947 37.6676 21.1136C37.3191 21.1591 36.9934 21.233 36.6903 21.3352C36.3911 21.4337 36.1487 21.5833 35.9631 21.7841C35.7813 21.9811 35.6903 22.25 35.6903 22.5909C35.6903 23.0568 35.8627 23.4091 36.2074 23.6477C36.5559 23.8826 36.9972 24 37.5312 24ZM47.3196 27.9773V13.3636H48.6605V27.9773H47.3196ZM47.3196 25.1818C46.7287 25.1818 46.1908 25.0758 45.706 24.8636C45.2211 24.6477 44.8045 24.3428 44.456 23.9489C44.1075 23.5511 43.8385 23.0758 43.6491 22.5227C43.4598 21.9697 43.3651 21.3561 43.3651 20.6818C43.3651 20 43.4598 19.3826 43.6491 18.8295C43.8385 18.2727 44.1075 17.7955 44.456 17.3977C44.8045 17 45.2211 16.6951 45.706 16.483C46.1908 16.267 46.7287 16.1591 47.3196 16.1591H47.7287V25.1818H47.3196ZM47.3196 23.9773H47.5469V17.3636H47.3196C46.8726 17.3636 46.4844 17.4545 46.1548 17.6364C45.8253 17.8144 45.5526 18.0587 45.3366 18.3693C45.1245 18.6761 44.9654 19.0284 44.8594 19.4261C44.7571 19.8239 44.706 20.2424 44.706 20.6818C44.706 21.2652 44.7988 21.8068 44.9844 22.3068C45.17 22.8068 45.456 23.2102 45.8423 23.517C46.2287 23.8239 46.7211 23.9773 47.3196 23.9773ZM48.6605 25.1818H48.2514V16.1591H48.6605C49.2514 16.1591 49.7893 16.267 50.2741 16.483C50.759 16.6951 51.1757 17 51.5241 17.3977C51.8726 17.7955 52.1416 18.2727 52.331 18.8295C52.5204 19.3826 52.6151 20 52.6151 20.6818C52.6151 21.3561 52.5204 21.9697 52.331 22.5227C52.1416 23.0758 51.8726 23.5511 51.5241 23.9489C51.1757 24.3428 50.759 24.6477 50.2741 24.8636C49.7893 25.0758 49.2514 25.1818 48.6605 25.1818ZM48.6605 23.9773C49.1113 23.9773 49.4995 23.8902 49.8253 23.7159C50.1548 23.5379 50.4257 23.2955 50.6378 22.9886C50.8537 22.678 51.0128 22.3258 51.1151 21.9318C51.2211 21.5341 51.2741 21.1174 51.2741 20.6818C51.2741 20.0985 51.1813 19.5549 50.9957 19.0511C50.8101 18.5473 50.5241 18.1402 50.1378 17.8295C49.7514 17.5189 49.259 17.3636 48.6605 17.3636H48.4332V23.9773H48.6605ZM57.233 25.2045C56.6799 25.2045 56.178 25.1004 55.7273 24.892C55.2765 24.6799 54.9186 24.375 54.6534 23.9773C54.3883 23.5758 54.2557 23.0909 54.2557 22.5227C54.2557 22.0227 54.3542 21.6174 54.5511 21.3068C54.7481 20.9924 55.0114 20.7462 55.3409 20.5682C55.6705 20.3902 56.0341 20.2576 56.4318 20.1705C56.8333 20.0795 57.2367 20.0076 57.642 19.9545C58.1723 19.8864 58.6023 19.8352 58.9318 19.8011C59.2652 19.7633 59.5076 19.7008 59.6591 19.6136C59.8144 19.5265 59.892 19.375 59.892 19.1591V19.1136C59.892 18.553 59.7386 18.1174 59.4318 17.8068C59.1288 17.4962 58.6686 17.3409 58.0511 17.3409C57.411 17.3409 56.9091 17.4811 56.5455 17.7614C56.1818 18.0417 55.9261 18.3409 55.7784 18.6591L54.5057 18.2045C54.733 17.6742 55.036 17.2614 55.4148 16.9659C55.7973 16.6667 56.214 16.4583 56.6648 16.3409C57.1193 16.2197 57.5663 16.1591 58.0057 16.1591C58.286 16.1591 58.608 16.1932 58.9716 16.2614C59.339 16.3258 59.6932 16.4602 60.0341 16.6648C60.3788 16.8693 60.6648 17.178 60.892 17.5909C61.1193 18.0038 61.233 18.5568 61.233 19.25V25H59.892V23.8182H59.8239C59.733 24.0076 59.5814 24.2102 59.3693 24.4261C59.1572 24.642 58.875 24.8258 58.5227 24.9773C58.1705 25.1288 57.7405 25.2045 57.233 25.2045ZM57.4375 24C57.9678 24 58.4148 23.8958 58.7784 23.6875C59.1458 23.4792 59.4223 23.2102 59.608 22.8807C59.7973 22.5511 59.892 22.2045 59.892 21.8409V20.6136C59.8352 20.6818 59.7102 20.7443 59.517 20.8011C59.3277 20.8542 59.108 20.9015 58.858 20.9432C58.6117 20.9811 58.3712 21.0152 58.1364 21.0455C57.9053 21.072 57.7178 21.0947 57.5739 21.1136C57.2254 21.1591 56.8996 21.233 56.5966 21.3352C56.2973 21.4337 56.0549 21.5833 55.8693 21.7841C55.6875 21.9811 55.5966 22.25 55.5966 22.5909C55.5966 23.0568 55.7689 23.4091 56.1136 23.6477C56.4621 23.8826 56.9034 24 57.4375 24ZM68.4531 23.1818L71.4986 16.2727H72.7713L68.9986 25H67.9077L64.2031 16.2727H65.4531L68.4531 23.1818ZM65.0213 16.2727V25H63.6804V16.2727H65.0213ZM71.8849 25V16.2727H73.2259V25H71.8849Z" fill="#110057"/>
</svg>
